<?xml version="1.0" standalone="no"?>
<!DOCTYPE svg PUBLIC "-//W3C//DTD SVG 20010904//EN"
 "http://www.w3.org/TR/2001/REC-SVG-20010904/DTD/svg10.dtd">
<svg version="1.0" xmlns="http://www.w3.org/2000/svg"
 width="512.000000pt" height="512.000000pt" viewBox="0 0 512.000000 512.000000"
 preserveAspectRatio="xMidYMid meet">

<g transform="translate(0.000000,512.000000) scale(0.100000,-0.100000)"
fill="#7E84A3" stroke="none">
<path d="M748 5110 c-131 -24 -188 -51 -188 -89 0 -8 116 -131 257 -273 l257
-258 -18 -87 c-10 -49 -27 -131 -38 -184 l-20 -97 -97 -20 c-53 -11 -135 -29
-183 -39 l-88 -18 -258 258 c-142 141 -264 257 -271 257 -33 0 -50 -23 -72
-102 -20 -71 -23 -105 -23 -228 1 -127 4 -156 27 -233 51 -167 126 -287 255
-408 217 -204 512 -280 808 -209 l79 19 357 -357 358 -357 -519 -520 -519
-520 -90 -185 -90 -185 -123 -44 c-168 -60 -172 -63 -267 -155 -111 -108 -137
-156 -137 -261 0 -123 11 -138 322 -446 245 -243 273 -268 322 -284 69 -23
169 -17 228 14 51 25 164 129 203 185 15 23 50 102 77 176 l50 135 189 94 189
94 518 516 517 516 359 -359 358 -358 -14 -51 c-24 -87 -28 -270 -9 -368 85
-416 460 -704 880 -676 362 25 655 267 759 625 18 64 21 101 21 217 -1 122 -4
151 -28 228 -44 148 -96 236 -205 351 -117 122 -272 207 -440 241 -98 20 -283
16 -368 -7 l-51 -15 -358 358 -358 358 82 84 c162 167 162 247 0 414 l-82 84
634 634 635 635 81 0 c63 0 86 4 102 18 25 20 332 584 332 607 0 21 -125 152
-163 172 -28 14 -35 11 -330 -151 l-302 -164 -3 -89 -3 -89 -639 -639 -639
-639 -83 80 c-116 113 -165 135 -254 113 -41 -10 -64 -27 -144 -105 l-96 -93
-356 357 -357 357 21 80 c30 117 30 310 -1 424 -45 170 -123 303 -247 422
-169 160 -350 237 -579 244 -66 2 -141 0 -167 -5z m342 -120 c270 -76 481
-293 550 -565 29 -112 28 -272 -1 -380 -11 -44 -24 -91 -26 -104 -5 -20 47
-76 373 -402 l379 -379 -203 -202 -202 -203 -379 379 c-326 326 -382 378 -402
373 -13 -2 -60 -15 -104 -26 -108 -29 -268 -30 -380 -1 -328 83 -564 364 -590
703 -6 74 6 201 20 215 3 4 111 -99 240 -228 l235 -235 117 24 c243 48 348 73
360 84 11 11 103 427 103 465 0 9 -104 121 -232 249 -128 128 -229 235 -226
238 29 30 255 26 368 -5z m3844 -129 c21 -22 37 -43 35 -48 -2 -5 -64 -120
-138 -256 l-134 -247 -81 0 -81 0 -650 -650 -650 -650 -75 75 -75 75 653 653
652 652 0 82 0 81 248 135 c136 75 249 136 252 136 3 1 23 -17 44 -38z m-1850
-1851 c316 -315 321 -320 321 -360 0 -41 -2 -42 -875 -914 l-875 -874 -165
-80 -165 -80 -272 272 c-150 149 -273 275 -273 280 0 5 36 84 81 175 l81 166
866 868 867 867 45 0 44 0 320 -320z m931 -1477 c86 34 138 42 260 42 146 0
222 -18 345 -80 269 -137 430 -443 390 -742 -37 -277 -214 -503 -470 -600
-250 -94 -520 -51 -726 115 -114 92 -198 219 -245 372 -39 126 -32 339 17 463
5 15 -69 94 -375 400 l-381 382 202 203 203 202 382 -381 c278 -279 386 -380
398 -376z m-2813 -1038 c-45 -125 -50 -132 -122 -209 -103 -109 -158 -131
-255 -105 -33 9 -84 55 -292 262 -139 138 -259 265 -268 283 -43 91 -27 159
58 251 82 87 101 99 246 154 l126 48 277 -277 277 -277 -47 -130z"/>
<path d="M1949 1954 c-290 -290 -533 -537 -540 -550 -10 -19 -9 -27 5 -49 9
-14 26 -25 39 -25 15 0 174 152 559 537 295 295 539 544 541 554 7 27 -20 59
-51 59 -22 0 -121 -94 -553 -526z"/>
<path d="M4180 1215 c-76 -22 -129 -55 -188 -120 -69 -76 -96 -145 -96 -255 0
-75 4 -93 31 -152 42 -89 100 -151 182 -191 61 -30 72 -32 171 -32 95 0 110 3
163 28 74 37 147 110 184 184 25 53 28 68 28 163 0 99 -2 110 -32 171 -80 162
-274 251 -443 204z m190 -107 c146 -45 225 -211 173 -364 -22 -66 -101 -145
-167 -167 -59 -20 -137 -21 -189 -3 -227 81 -259 390 -52 512 72 42 146 49
235 22z"/>
</g>
</svg>
